<svg xmlns="http://www.w3.org/2000/svg" viewBox="0 0 119.89 150.35"><title>FC Sheriff Tiraspol logo</title><path d="M482.7,587a10.16,10.16,0,0,0,7.89-12L512,559.68l21.29,15.16a10.83,10.83,0,0,0,.13,3.3,10.14,10.14,0,0,0,9.94,8.12l1,0A10.16,10.16,0,0,0,544,566L536.82,541l20.12-16a11.22,11.22,0,0,0,3.45,1.14,10.18,10.18,0,0,0,11.1-7,10.16,10.16,0,0,0-18.82-7.47l-25.3-.67L519,486.58a10.36,10.36,0,0,0,2.29-3.32,10.15,10.15,0,0,0-2.51-11.5l-.74-.61a10.13,10.13,0,0,0-12.13,0l-.74.61a10.15,10.15,0,0,0-.79,14.24,7.65,7.65,0,0,0,.56.58L496.63,511l-25.3.67a10.5,10.5,0,0,0-3-3.64,10.16,10.16,0,0,0-12.2,0l-.74.61A10.15,10.15,0,0,0,453.27,521a10.44,10.44,0,0,0,5.92,4.87,10.25,10.25,0,0,0,7.88-.78l20.12,16-7.42,25.86a10.2,10.2,0,0,0-9.15,11.66l.2,1a10.2,10.2,0,0,0,9.85,7.6,10.53,10.53,0,0,0,2-.2" transform="translate(-452.06 -436.83)" style="fill:#302c2a;fill-rule:evenodd"/><path d="M509.37,485.16,499.3,514.64l-30.66.81a6.49,6.49,0,1,0-1.55,4.91l24.34,19.31-8.93,31.18a6.27,6.27,0,0,0-1.84-.27,6.47,6.47,0,1,0,5.45,3L512,555.14l25.55,18.17a6.42,6.42,0,0,0,5.81,9.24,6.45,6.45,0,1,0,0-12.9,6.3,6.3,0,0,0-2.06.34l-8.7-30.32,24.34-19.31a6.44,6.44,0,1,0-1.53-4.91l-30.68-.81-10.07-29.47a6.45,6.45,0,1,0-5.27,0" transform="translate(-452.06 -436.83)" style="fill-rule:evenodd"/><path d="M509.37,485.16,499.3,514.64l-30.66.81a6.49,6.49,0,1,0-1.55,4.91l24.34,19.31-8.93,31.18a6.27,6.27,0,0,0-1.84-.27,6.47,6.47,0,1,0,5.45,3L512,555.14l25.55,18.17a6.42,6.42,0,0,0,5.81,9.24,6.45,6.45,0,1,0,0-12.9,6.3,6.3,0,0,0-2.06.34l-8.7-30.32,24.34-19.31a6.44,6.44,0,1,0-1.53-4.91l-30.68-.81-10.07-29.47a6.45,6.45,0,1,0-5.27,0" transform="translate(-452.06 -436.83)" style="fill:#fdcb00;fill-rule:evenodd"/><path d="M512,553.62h0l.72.52,25.53,18.19.85.58-.45.94a6.5,6.5,0,0,0-.38,1.1,4.65,4.65,0,0,0-.13,1.14,5.25,5.25,0,0,0,1.55,3.7,5.19,5.19,0,0,0,3.68,1.52,5.21,5.21,0,0,0,5.23-5.22,5.18,5.18,0,0,0-1.53-3.68,5.24,5.24,0,0,0-3.7-1.53c-.29,0-.58,0-.85,0s-.56.13-.83.22l-1.21.4-.36-1.23L531.39,540l-.22-.78.65-.52,24.34-19.31.92-.72.78.9a5.18,5.18,0,0,0,1.77,1.32,5,5,0,0,0,2.17.47,5.25,5.25,0,0,0,5.23-5.23,5,5,0,0,0-1.55-3.65,5.15,5.15,0,0,0-7.16-.2,5.12,5.12,0,0,0-1.73,3.3l-.11,1.14-1.14,0-30.66-.81-.85,0-.29-.81-10.07-29.5-.36-1.05,1-.45a5.22,5.22,0,0,0,1.57-8.45A5.29,5.29,0,0,0,512,474v-2.47a7.69,7.69,0,0,1,6.46,11.87,8.06,8.06,0,0,1-2.31,2.31l9.46,27.68,28.76.76a7.83,7.83,0,0,1,2.31-3.75,7.65,7.65,0,0,1,10.56.29,7.62,7.62,0,0,1,2.27,5.41,7.7,7.7,0,0,1-7.69,7.69,7.51,7.51,0,0,1-3.18-.69,7.76,7.76,0,0,1-1.79-1.12L534,540.12l8.14,28.4a7.52,7.52,0,0,1,1.21-.09,7.68,7.68,0,1,1-7.69,7.67,7.09,7.09,0,0,1,.2-1.68,5.7,5.7,0,0,1,.18-.65l-24-17.12Zm-1.1-69.13-.36,1.05L500.46,515l-.27.81-.88,0-30.66.81-1.12,0-.14-1.14a5.19,5.19,0,0,0-1.7-3.3,5.21,5.21,0,0,0-7.18,7.56,5.18,5.18,0,0,0,3.68,1.53,5,5,0,0,0,2.17-.47,5,5,0,0,0,1.77-1.32l.78-.9.92.72,24.36,19.31.63.52-.22.78-8.93,31.18-.36,1.19-1.19-.36c-.25-.07-.47-.11-.72-.16a4.34,4.34,0,0,0-.76,0,5.25,5.25,0,0,0-3.7,1.52,5.23,5.23,0,0,0,0,7.38,5.29,5.29,0,0,0,3.7,1.53,5.19,5.19,0,0,0,3.68-1.53,5.2,5.2,0,0,0,1.35-5.14,5.21,5.21,0,0,0-.6-1.35l-.63-1,.94-.67,25.88-18.44.72-.52v3L487.7,574a6.49,6.49,0,0,1,.34.92,7.69,7.69,0,1,1-7.38-5.54c.31,0,.65,0,1,0L490,540.12,467.18,522a8.18,8.18,0,0,1-1.77,1.12,7.69,7.69,0,1,1-3.21-14.67,7.76,7.76,0,0,1,5.14,2,7.86,7.86,0,0,1,2.31,3.75l28.76-.76,9.46-27.68a8.12,8.12,0,0,1-2.31-2.31,7.88,7.88,0,0,1-1.23-4.17,7.7,7.7,0,0,1,7.67-7.69V474a5.22,5.22,0,0,0-4.37,8.05,5.47,5.47,0,0,0,2.26,2Z" transform="translate(-452.06 -436.83)" style="fill:#fff;fill-rule:evenodd"/><path d="M512.93,519.88a22.92,22.92,0,1,1-22.59,22.9,22.75,22.75,0,0,1,22.59-22.9" transform="translate(-452.06 -436.83)" style="fill:#e8e8e8;fill-rule:evenodd"/><path d="M512.93,519.7A22.56,22.56,0,0,1,529,526.48a23.23,23.23,0,0,1,0,32.61,22.46,22.46,0,0,1-16.08,6.77v-.34a22.33,22.33,0,0,0,15.86-6.66,22.93,22.93,0,0,0,0-32.14A22.25,22.25,0,0,0,512.93,520Zm0,46.16a22.5,22.5,0,0,1-16.08-6.77,23.23,23.23,0,0,1,0-32.61,22.59,22.59,0,0,1,16.08-6.78V520a22.16,22.16,0,0,0-15.83,6.69,22.93,22.93,0,0,0,0,32.14,22.24,22.24,0,0,0,15.83,6.66Z" transform="translate(-452.06 -436.83)" style="fill:#302c2a;fill-rule:evenodd"/><polygon points="60.43 107.24 61.91 111.81 66.69 111.99 62.88 114.84 64.2 119.55 60.36 116.73 56.41 119.44 57.85 114.84 54.11 111.83 58.82 111.81 60.43 107.24" style="fill:#302c2a;fill-rule:evenodd"/><path d="M496.2,550l3.14,3.45,2.89-.88-.67,3.45,4,3.23c-1.48-.43-3-.47-4.4-1.26l.2,2.42-3-3.59L495.19,555l1.57-.54Z" transform="translate(-452.06 -436.83)" style="fill:#302c2a;fill-rule:evenodd"/><path d="M505.4,561.83c4.75,3.59,9.87,3.63,15.43.16a5.94,5.94,0,0,1-2.94-4.22,22.2,22.2,0,0,1-10.23-.16,7.36,7.36,0,0,1-2.26,4.22" transform="translate(-452.06 -436.83)" style="fill:#302c2a;fill-rule:evenodd"/><polygon points="51.14 113.76 54.24 108.4 42.87 110.67 51.14 113.76" style="fill:#302c2a;fill-rule:evenodd"/><polygon points="70.05 114.08 66.96 108.72 78.35 110.98 70.05 114.08" style="fill:#302c2a;fill-rule:evenodd"/><path d="M505.62,523.79c4.75-3.57,8.82-3.39,14.38.09-1.37,1.28-1.7,2.64-2.26,4.15a21.59,21.59,0,0,0-10.23.16,7.17,7.17,0,0,0-1.88-4.4" transform="translate(-452.06 -436.83)" style="fill:#302c2a;fill-rule:evenodd"/><path d="M499.61,525.8l.76,1.61,4.15-1.68-3.43,3.45,3.68,8.75c-1.19-.94-2.6-1.57-3.59-2.83l-.72,2.33L497.55,533,496,529.53l1.57-.13Z" transform="translate(-452.06 -436.83)" style="fill:#302c2a;fill-rule:evenodd"/><path d="M525.81,525.74l-.79,1.59-4.13-1.66,3.43,3.45-3.7,8.75c1.21-.94,2.62-1.57,3.59-2.85l.74,2.33,2.89-4.49,1.55-3.41-1.57-.13Z" transform="translate(-452.06 -436.83)" style="fill:#302c2a;fill-rule:evenodd"/><path d="M479.45,532.56a3.85,3.85,0,0,1,1-1,4.51,4.51,0,0,1,1.3-.45,5.46,5.46,0,0,1,2.62,0l.88.29.6.54.61-.81.29,0h.79v.38l58.45,0,0,21.47c-22.88-8.21-45.29-7.47-67.38,0l-.09-17.43a6.09,6.09,0,0,1,.94-2.94" transform="translate(-452.06 -436.83)" style="fill:#302c2a;fill-rule:evenodd"/><path d="M516.37,542.54v-4.37a1.77,1.77,0,0,0,.43-.27,2.7,2.7,0,0,0,.72-2.22,2.31,2.31,0,0,0-1.14-2.33v-1.55h.72a4,4,0,0,1,2,.43,2.9,2.9,0,0,1,1.16,1,4.39,4.39,0,0,1,.5,1.26,5.39,5.39,0,0,1,.13,1.14,4.58,4.58,0,0,1-.58,2.29,2.83,2.83,0,0,1-1.77,1.32c.38,1,.78,2,1.17,2.92s.78,2,1.17,3c.25.6.49.94.78,1v.69c-1.23-.09-2.47-.18-3.7-.25-.45-1.16-.88-2.31-1.32-3.43Zm5.67,4.35v-.7a.85.85,0,0,0,.25,0,.44.44,0,0,0,.54-.4,6.85,6.85,0,0,0,.12-1.39v-10a7.12,7.12,0,0,0-.12-1.41.53.53,0,0,0-.54-.47H522v-.69c1.73,0,3.45,0,5.21,0v.72H527a.45.45,0,0,0-.45.25,1.58,1.58,0,0,0-.18.65,7,7,0,0,0,0,1v10.3a7.06,7.06,0,0,0,0,1,1.84,1.84,0,0,0,.18.69.55.55,0,0,0,.45.31l.22,0v.74c-1.73-.27-3.48-.47-5.21-.67m6.19-15.07c2.71,0,5.43,0,8.12,0,0,.81,0,1.59.07,2.4s0,1.59.09,2.4l-.54,0c-.14-2.11-1.12-3.18-2.89-3.25h-.54v5.88a1.2,1.2,0,0,0,1.26-.6,4.51,4.51,0,0,0,.43-2.13,3.73,3.73,0,0,0,.49,0v7.63c-.16,0-.34-.07-.49-.11a6.12,6.12,0,0,0-.38-2.38,1.5,1.5,0,0,0-1.3-.94v5a7.21,7.21,0,0,0,.09,1.39,1.26,1.26,0,0,0,.27.63.69.69,0,0,0,.4.18l.31.07v.79c-1.79-.38-3.59-.74-5.38-1V547c.07,0,.13,0,.22,0s.4-.07.51-.36a5.31,5.31,0,0,0,.16-1.5V534.55a6.1,6.1,0,0,0-.14-1.48c-.09-.34-.27-.51-.51-.51h-.25Zm9.06,0,8.14.07c0,.92,0,1.86.07,2.78l.07,2.78a4.43,4.43,0,0,0-.54,0c-.16-2.44-1.1-3.72-2.89-3.79a3.88,3.88,0,0,1-.54,0v6.71a1.07,1.07,0,0,0,1.28-.63,6.24,6.24,0,0,0,.4-2.42l.49,0v8.77a3.48,3.48,0,0,0-.49-.11,8.38,8.38,0,0,0-.36-2.78,1.71,1.71,0,0,0-1.32-1.14v5.65a9,9,0,0,0,.11,1.59,1.51,1.51,0,0,0,.25.74.7.7,0,0,0,.43.27c.09,0,.2.07.31.11v.9c-1.82-.6-3.61-1.14-5.41-1.66v-.83l.22.07c.22.07.4-.07.52-.36a5.56,5.56,0,0,0,.16-1.68V534.93a7.72,7.72,0,0,0-.14-1.66c-.09-.38-.27-.58-.51-.58h-.25Zm-50.22,5.85a4.42,4.42,0,0,0-.54,0,10.38,10.38,0,0,0-.88-3.21,2.14,2.14,0,0,0-2.09-1.41,1.49,1.49,0,0,0-1.1.52,2.09,2.09,0,0,0-.5,1.5,2.57,2.57,0,0,0,.31,1.37,2.54,2.54,0,0,0,.79.9,9.75,9.75,0,0,0,1.21.69,11.58,11.58,0,0,1,1.05.59,5.13,5.13,0,0,1,1.84,2.17,8.35,8.35,0,0,1,.6,3.34,9,9,0,0,1-.65,3.61,6.34,6.34,0,0,1-1.59,2.26,5.24,5.24,0,0,1-1.91,1.06,3.73,3.73,0,0,1-2.2-.07c-.27-.09-.49-.2-.67-.25a.82.82,0,0,0-.47,0,.77.77,0,0,0-.45.47,2.68,2.68,0,0,0-.13.9,5.58,5.58,0,0,1-.56.18V544.8a5.13,5.13,0,0,1,.56-.11,8.85,8.85,0,0,0,.81,2.85,4.21,4.21,0,0,0,1.46,1.73,1.9,1.9,0,0,0,1.57.34,1.84,1.84,0,0,0,1.08-.9,4,4,0,0,0,.45-2,2.44,2.44,0,0,0-.27-1.28,1.58,1.58,0,0,0-.63-.65c-.25-.13-.79-.43-1.66-.81a7.93,7.93,0,0,1-1.75-1.06,4.64,4.64,0,0,1-1.26-1.88,8.73,8.73,0,0,1-.51-3.25,9.78,9.78,0,0,1,.54-3.39,4.94,4.94,0,0,1,1.53-2.24,3.66,3.66,0,0,1,2.29-.76,2.93,2.93,0,0,1,1.75.63c.18.13.34.25.45.31a1.07,1.07,0,0,0,.27.18.43.43,0,0,0,.22.07.37.37,0,0,0,.34-.22.9.9,0,0,0,.16-.58v-.22h.54v6.17Zm29.29-5.92v1.55a2.78,2.78,0,0,0-1.12-.22v5.31a2.39,2.39,0,0,0,1.12-.27v4.37c-.36-.94-.72-1.86-1.08-2.78h0V544c0,.4,0,.72,0,1a1.36,1.36,0,0,0,.18.6.51.51,0,0,0,.43.25h.25v.67c-1.75,0-3.48,0-5.18,0v-.67h.22c.22,0,.4-.16.49-.45a4.88,4.88,0,0,0,.16-1.39v-9.69a5,5,0,0,0-.16-1.39.51.51,0,0,0-.49-.43H511v-.69c1.79,0,3.59,0,5.4,0m-23,7.36c.9-.09,1.79-.16,2.69-.22v-4.37a6.29,6.29,0,0,0-.13-1.48c-.09-.34-.25-.51-.52-.51l-.25,0v-.76c1.73,0,3.45,0,5.2,0v.72h-.25c-.27,0-.43.18-.52.5a6,6,0,0,0-.13,1.44v10.29a7.46,7.46,0,0,0,.11,1.37c.09.34.25.49.5.47l.29,0v.72c-1.75.25-3.48.51-5.2.78v-.74l.22,0c.27,0,.45-.25.54-.61a6.27,6.27,0,0,0,.13-1.48v-4.8l-2.69.27v4.93c0,.45,0,.81,0,1.1a1.57,1.57,0,0,0,.18.65.36.36,0,0,0,.4.18.84.84,0,0,0,.25,0v.76q-2.59.47-5.18,1.08v-.81l.25-.07c.27,0,.42-.27.51-.65a7.42,7.42,0,0,0,.11-1.61V534.78a8.69,8.69,0,0,0-.11-1.59c-.07-.36-.25-.54-.49-.54a1.14,1.14,0,0,0-.27,0v-.81l5.18,0v.76H494c-.25,0-.43.18-.52.49a6.57,6.57,0,0,0-.13,1.57v4.51Zm8-7.36h8c0,.65,0,1.32.07,2l.07,2H509a2.82,2.82,0,0,0-.94-2.09,2.88,2.88,0,0,0-1.68-.58c-.22,0-.45,0-.67,0v5.25a1.15,1.15,0,0,0,.83-.31,1.73,1.73,0,0,0,.47-.88,7.09,7.09,0,0,0,.16-1.37h.56v6.35l-.56,0a4.75,4.75,0,0,0-.36-1.86,1.13,1.13,0,0,0-1.1-.63v4.35a2,2,0,0,0,.2,1.12.75.75,0,0,0,.61.22,3.34,3.34,0,0,0,1.3-.43,4.22,4.22,0,0,0,1.12-1.08,4.5,4.5,0,0,0,.69-1.64l.56.27-.34,2c-.11.65-.22,1.3-.34,2-2.71.14-5.43.34-8.12.63v-.72l.27,0c.25,0,.43-.22.5-.56a5.84,5.84,0,0,0,.11-1.39V534.4a5.83,5.83,0,0,0-.11-1.39c-.07-.34-.25-.5-.5-.5h-.27Z" transform="translate(-452.06 -436.83)" style="fill:#fff;fill-rule:evenodd"/><path d="M541.42,551.08v-.34c.38.13.74.25,1.12.36v-.56s-.09,0-.11,0,0,0-.09,0l-.29-.13a.66.66,0,0,1-.22-.2,1.4,1.4,0,0,1-.16-.31,2.25,2.25,0,0,1-.11-.47,4.89,4.89,0,0,1-.09-.69c0-.27,0-.59,0-.94v-5.85l.18,0a1.79,1.79,0,0,1,.88.43,1.88,1.88,0,0,1,.56.83,5.41,5.41,0,0,1,.29,1.21c0,.45.09.94.09,1.48l.14,0h0v-8.43a.46.46,0,0,1-.18,0,9.77,9.77,0,0,1-.13,1.3,3.5,3.5,0,0,1-.29,1,1.33,1.33,0,0,1-.59.63,1.48,1.48,0,0,1-.85.09l-.13,0v-7h.16a2.11,2.11,0,0,0,.36,0h.18a2.72,2.72,0,0,1,2.17,1.08,4.75,4.75,0,0,1,.85,2.71l.07,0h.18c0-.38,0-.78,0-1.21s0-.92,0-1.39,0-.94,0-1.41,0-.81,0-1.21l-3.86,0v-.31l4,0h.13v.16c0,.45,0,.92,0,1.37s0,.94,0,1.41,0,.92,0,1.39,0,.92,0,1.39v.16h-.18c-.13,0-.25,0-.34,0a.52.52,0,0,1-.2,0h-.13v-.13a4.77,4.77,0,0,0-.81-2.69,2.48,2.48,0,0,0-1.93-.94h-.2a.59.59,0,0,1-.18,0v6.41a.86.86,0,0,0,.54-.09,1,1,0,0,0,.45-.47,4,4,0,0,0,.27-.94,8.83,8.83,0,0,0,.11-1.41v-.18l.18,0,.36,0h.14l.13,0v9.11l-.2,0a2.33,2.33,0,0,0-.25-.07l-.25-.07-.11,0V546a11,11,0,0,0-.09-1.57,3.86,3.86,0,0,0-.27-1.14,1.68,1.68,0,0,0-.47-.72,1.25,1.25,0,0,0-.54-.29v5.45c0,.34,0,.65,0,.92s0,.5.07.65.07.31.11.45a1.14,1.14,0,0,0,.11.22.39.39,0,0,0,.16.11.41.41,0,0,0,.2.11l.09,0,.22.07.09,0v1.21l-.2-.07c-.4-.14-.81-.25-1.21-.38m0-19.33v.31h-.07l-3.9,0v.52h.09a.59.59,0,0,1,.45.2,1.38,1.38,0,0,1,.22.51,5.81,5.81,0,0,1,.09.72c0,.29,0,.6,0,1v11.93c0,.4,0,.76,0,1.05a2.45,2.45,0,0,1-.14.69.82.82,0,0,1-.27.38.56.56,0,0,1-.43,0h0v.52c.88.25,1.75.51,2.58.76l1.39.43v.34l-1.48-.47-2.69-.79-.11,0v-1.12l.2,0,.09,0,.11,0a.2.2,0,0,0,.2,0,.5.5,0,0,0,.13-.22,1.84,1.84,0,0,0,.11-.6c0-.29,0-.63,0-1V534.93c0-.34,0-.65,0-.94s-.07-.5-.09-.67a1,1,0,0,0-.18-.38.22.22,0,0,0-.2-.09h-.4V531.7h.16l4.06,0Zm-9.06,16.89v-.31c.36.09.74.16,1.1.22v-.45a.12.12,0,0,0-.09,0,.18.18,0,0,0-.09,0A.9.9,0,0,1,533,548l-.22-.13a.89.89,0,0,1-.18-.29,1.64,1.64,0,0,1-.11-.4,3.87,3.87,0,0,1-.09-.63c0-.22,0-.49,0-.81v-5.14l.18,0a1.7,1.7,0,0,1,.85.31,1.87,1.87,0,0,1,.58.72,4.25,4.25,0,0,1,.27,1.07,10.59,10.59,0,0,1,.11,1.26h0l.16,0v-7.29h-.2a5.27,5.27,0,0,1-.11,1.1,2.73,2.73,0,0,1-.31.92,1.15,1.15,0,0,1-.56.56,1.73,1.73,0,0,1-.85.13l-.13,0v-6.17h.69a2.92,2.92,0,0,1,2.17.92,4,4,0,0,1,.85,2.36h.22c0-.34,0-.67,0-1s0-.81,0-1.21,0-.81,0-1.21,0-.69,0-1c-1.3,0-2.58,0-3.86,0v-.31l4,0h.16v.16c0,.38,0,.78,0,1.19s0,.81,0,1.21,0,.79,0,1.19,0,.81,0,1.21v.16h-.18a1.1,1.1,0,0,0-.27,0l-.27,0h-.14v-.14a3.78,3.78,0,0,0-.78-2.31,2.62,2.62,0,0,0-2-.81h-.36v5.56a1.06,1.06,0,0,0,.54-.09.87.87,0,0,0,.42-.42,2.61,2.61,0,0,0,.29-.83,9.43,9.43,0,0,0,.11-1.23v-.16l.16,0a1.33,1.33,0,0,1,.65.18v7.8l-.18,0-.36-.07-.13,0-.13,0v-.13a7.69,7.69,0,0,0-.09-1.32,4.81,4.81,0,0,0-.27-1,1.32,1.32,0,0,0-.47-.6,1.45,1.45,0,0,0-.54-.22v4.78c0,.29,0,.56,0,.81s0,.4.07.56a1.53,1.53,0,0,0,.11.36.55.55,0,0,0,.11.18.37.37,0,0,0,.14.09l.2.07h.07a1.21,1.21,0,0,0,.25,0l.11,0v1.1l-.18,0c-.4-.07-.81-.16-1.23-.25m0-17V532h-.07c-1.3,0-2.6,0-3.9,0v.43h.09a.57.57,0,0,1,.43.18,1.08,1.08,0,0,1,.25.45,4.29,4.29,0,0,1,.09.65c0,.25,0,.54,0,.88v10.59c0,.36,0,.67,0,.94a2,2,0,0,1-.13.63.75.75,0,0,1-.27.36.5.5,0,0,1-.4.09h0v.43c.85.13,1.7.31,2.56.47l1.41.27v.31c-.47-.09-1-.18-1.46-.29l-2.69-.5-.14,0v-1l.18,0,.11,0a.19.19,0,0,1,.11,0,.33.33,0,0,0,.2,0h0a.34.34,0,0,0,.16-.22,2.48,2.48,0,0,0,.11-.56c0-.22,0-.54,0-.9V534.55c0-.31,0-.61,0-.85a4,4,0,0,0-.09-.6.47.47,0,0,0-.16-.29.23.23,0,0,0-.2-.09h-.25l-.16,0v-1h.16l4.06,0Zm-7.72,15.68V547h0q1.18.14,2.42.34V547H527a1,1,0,0,1-.34-.13.84.84,0,0,1-.22-.27,2.29,2.29,0,0,1-.13-.34,1.74,1.74,0,0,1-.07-.4,3.42,3.42,0,0,1,0-.47,5,5,0,0,1,0-.58v-10.3a4.74,4.74,0,0,1,0-.58,3.39,3.39,0,0,1,0-.47c0-.14,0-.27.07-.38a2.3,2.3,0,0,1,.13-.34.84.84,0,0,1,.25-.25.92.92,0,0,1,.34-.07h.07v-.56l-.38.14h-2.06v-.29c.81,0,1.7.07,2.76.16v.88H527a.24.24,0,0,0-.18,0,.23.23,0,0,0-.13.11c0,.07-.07.16-.11.25s0,.22-.07.36a3.13,3.13,0,0,1,0,.45v11.42a3.24,3.24,0,0,1,0,.47c0,.11,0,.25.07.34s.07.2.11.29a1.17,1.17,0,0,0,.13.16.78.78,0,0,0,.2.07.09.09,0,0,1,.07,0h.16l.13,0v1.05l-.18,0c-.85-.11-1.7-.25-2.58-.34m0-15.7V532H522.2v.38h.09a.74.74,0,0,1,.45.16.87.87,0,0,1,.25.45,3.89,3.89,0,0,1,.07.61c0,.25,0,.51,0,.83v10c0,.31,0,.58,0,.81a3.8,3.8,0,0,1-.07.6.72.72,0,0,1-.25.43.68.68,0,0,1-.47.11l-.07-.18v.56c.81.09,1.64.18,2.45.29v.31l0,0L522,547l-.13,0v-.83l.43-.11a.34.34,0,0,0,.22-.07.32.32,0,0,0,.13-.25,2.5,2.5,0,0,0,.09-.56c0-.22,0-.5,0-.79v-10c0-.29,0-.56,0-.81a3,3,0,0,0-.09-.56.37.37,0,0,0-.13-.27.33.33,0,0,0-.25-.09h-.4v-1H522c.83,0,1.66,0,2.6,0m-8.35,11.08v-.85l.45,1.21c.31.76.54,1.39.78,2s.43,1.1.52,1.35c.58,0,1.19.09,1.75.11l1.68.13v-.43a1.11,1.11,0,0,1-.38-.31,2.79,2.79,0,0,1-.38-.74c-.13-.31-.25-.63-.38-.92-.25-.65-.49-1.3-.81-2l-.65-1.68c-.18-.42-.34-.83-.49-1.26l-.07-.16.16,0a2.56,2.56,0,0,0,1.68-1.23,4.25,4.25,0,0,0,.4-1.05,3.88,3.88,0,0,0,.11-1.7c0-.18,0-.38-.09-.58a2.24,2.24,0,0,0-.18-.59,4,4,0,0,0-.29-.6,2,2,0,0,0-.45-.54,2.78,2.78,0,0,0-.65-.45,3.3,3.3,0,0,0-.85-.31,5.25,5.25,0,0,0-1.08-.11h-.79v-.29h.79a4.6,4.6,0,0,1,1.15.11,4,4,0,0,1,.94.31,3.26,3.26,0,0,1,.69.51,2.64,2.64,0,0,1,.52.61,4.44,4.44,0,0,1,.31.65,3.24,3.24,0,0,1,.2.65,5.51,5.51,0,0,1,.09.58,6.42,6.42,0,0,1-.11,1.84,4.7,4.7,0,0,1-.45,1.1,3.06,3.06,0,0,1-.79.9,3.55,3.55,0,0,1-.92.45c.16.36.29.72.43,1.1.22.54.45,1.08.67,1.68s.51,1.32.81,2c.11.29.25.6.36.92a2.9,2.9,0,0,0,.36.65.73.73,0,0,0,.34.27l.11,0v1l-.16,0-1.86-.13c-.63,0-1.23-.09-1.84-.11l-.11,0,0-.09c-.31-.81-.43-1.08-.56-1.44-.27-.72-.56-1.44-.76-2Zm0-4.37a2.94,2.94,0,0,0,.61-.36,1.74,1.74,0,0,0,.56-.9,4.42,4.42,0,0,0,.18-1.44,3,3,0,0,0-.58-2,2,2,0,0,0-.76-.54v.34a1.29,1.29,0,0,1,.52.4,2.56,2.56,0,0,1,.54,1.79,4.53,4.53,0,0,1-.18,1.35,1.5,1.5,0,0,1-.47.74,2.08,2.08,0,0,1-.4.27Zm0-6.73v.29h-5.18v.38h.07a.66.66,0,0,1,.4.13,1.38,1.38,0,0,1,.25.4,3.55,3.55,0,0,1,.11.6c0,.25,0,.52,0,.83V544c0,.31,0,.6,0,.83a3.66,3.66,0,0,1-.11.61,1.15,1.15,0,0,1-.25.4.69.69,0,0,1-.4.16h-.07v.36h2.42l2.45,0V546h-.09a.75.75,0,0,1-.31-.09.43.43,0,0,1-.22-.22.77.77,0,0,1-.13-.31,1.71,1.71,0,0,1-.09-.36c0-.16,0-.29,0-.47a4.13,4.13,0,0,1,0-.54v-4.42l.18,0h.13l0,.11c.2.56.43,1.12.65,1.68l.2.49v.85l-.49-1.23-.4-1.06v4.08c0,.16,0,.29,0,.43a.71.71,0,0,0,.07.31.94.94,0,0,0,.09.25.81.81,0,0,0,.13.11.34.34,0,0,0,.16,0h.25l.16,0v1h-.16c-.88,0-1.75,0-2.6,0s-1.73,0-2.58,0h-.16v-1h.38a.31.31,0,0,0,.2-.07.76.76,0,0,0,.16-.27,2.68,2.68,0,0,0,.09-.54c0-.22,0-.49,0-.81v-9.69a7.37,7.37,0,0,0,0-.79,3,3,0,0,0-.09-.56.53.53,0,0,0-.16-.25.32.32,0,0,0-.2-.07h-.38v-1h5.5Zm0,1.5a3,3,0,0,0-1.05-.16h-.16v5.61h.16a2.41,2.41,0,0,0,.88-.16.36.36,0,0,0,.18-.07V538l-.29.13a5.92,5.92,0,0,1-.61.11v-5a2.83,2.83,0,0,1,.9.2Zm-14.78,14.15V547c1.3-.14,2.6-.25,3.88-.36s2.63-.18,3.95-.25c.07-.29.11-.58.16-.88s.11-.67.16-1c.09-.47.16-.88.22-1.3,0-.2.07-.4.11-.56a1.93,1.93,0,0,0-.18-.09s-.09,0-.11,0a7,7,0,0,1-.25.72,3.49,3.49,0,0,1-.45.76,3.87,3.87,0,0,1-.54.65,3.24,3.24,0,0,1-.63.47,3.1,3.1,0,0,1-.67.31,1.9,1.9,0,0,1-.69.13.8.8,0,0,1-.4,0,.65.65,0,0,1-.31-.22.94.94,0,0,1-.2-.47,6,6,0,0,1,0-.74v-4.49h.16a1.38,1.38,0,0,1,.74.16,1.31,1.31,0,0,1,.5.54,3.34,3.34,0,0,1,.27.83c0,.27.09.58.11.92h.25V536h-.25a4.91,4.91,0,0,1-.07.63,4.84,4.84,0,0,1-.11.63,2.88,2.88,0,0,1-.18.52,3.07,3.07,0,0,1-.31.42,1.17,1.17,0,0,1-.43.27,1.27,1.27,0,0,1-.51.09l-.16,0V533h.83a3,3,0,0,1,.9.13,3.57,3.57,0,0,1,.87.45,2.07,2.07,0,0,1,.67.88,3.86,3.86,0,0,1,.31,1.19h.22a4.06,4.06,0,0,0,0-.52c0-.45,0-.88,0-1.35,0-.31,0-.65,0-1s0-.56,0-.88l-3.83,0h-3.83v-.31h8l0,.13c0,.34,0,.67,0,1s0,.65,0,1,0,.9,0,1.35c0,.2,0,.43,0,.65v.16h-.16a1.06,1.06,0,0,0-.25,0h-.4l0-.16a4.64,4.64,0,0,0-.29-1.23,2.19,2.19,0,0,0-.58-.74,3.42,3.42,0,0,0-.78-.4,2.53,2.53,0,0,0-.81-.13h-.52v5l.25-.07a.83.83,0,0,0,.34-.2,1.13,1.13,0,0,0,.22-.34,1.58,1.58,0,0,0,.18-.45,4.26,4.26,0,0,0,.11-.6c0-.22,0-.47.07-.74v-.16h.83v6.66h-.13a1,1,0,0,1-.27,0,1.11,1.11,0,0,0-.27,0H507v-.16a5.94,5.94,0,0,0-.13-1,2.15,2.15,0,0,0-.25-.76.92.92,0,0,0-.36-.4,1.31,1.31,0,0,0-.43-.13v4.19a3.26,3.26,0,0,0,0,.69.64.64,0,0,0,.11.31.39.39,0,0,0,.2.13.48.48,0,0,0,.27,0,2.9,2.9,0,0,0,.63-.14,3.44,3.44,0,0,0,.61-.27,3.52,3.52,0,0,0,1.07-1,4.3,4.3,0,0,0,.4-.72,5.19,5.19,0,0,0,.27-.85l0-.2.18.09.29.13a1.41,1.41,0,0,1,.27.13l.11,0,0,.11c0,.25-.07.47-.11.67-.09.45-.16.9-.22,1.3s-.11.65-.16,1-.14.69-.18,1l0,.11-.11,0c-1.37.07-2.71.16-4.08.25s-2.62.22-3.9.36m0-.72h.13a.61.61,0,0,0,.4-.22.84.84,0,0,0,.22-.45,4.34,4.34,0,0,0,.09-.63c0-.25,0-.51,0-.81V534.39c0-.31,0-.56,0-.81a3.92,3.92,0,0,0-.09-.6.77.77,0,0,0-.22-.45.5.5,0,0,0-.42-.18h-.11v.31h.11a.26.26,0,0,1,.2.07.81.81,0,0,1,.16.31c0,.16,0,.34.07.59a6.73,6.73,0,0,1,0,.76v10.07a7.51,7.51,0,0,1,0,.79c0,.22,0,.43-.07.58a.8.8,0,0,1-.16.31.26.26,0,0,1-.2.11h-.11Zm0-14.94V532h0v.4h0v.31h-.31v-1h.31Zm0,14.62v.31h0v.4h0v.31h-.16l-.16,0v-1l.13,0h.16Zm-6.8-5.61v-.31l1.32-.13h.18v5c0,.31,0,.61,0,.85a4.32,4.32,0,0,1-.11.67.91.91,0,0,1-.22.47.74.74,0,0,1-.43.25s-.07,0-.09,0v.42l2.42-.38,2.47-.36v-.4l-.11,0a.47.47,0,0,1-.43-.13.86.86,0,0,1-.22-.45,4.62,4.62,0,0,1-.11-.63c0-.22,0-.5,0-.79v-10.3c0-.29,0-.58,0-.81a4.14,4.14,0,0,1,.09-.65.88.88,0,0,1,.25-.45.58.58,0,0,1,.43-.18h.09V532l-2.4,0h-2.49v.45h.09a.49.49,0,0,1,.43.16,1,1,0,0,1,.25.45,4.67,4.67,0,0,1,.09.65c0,.25,0,.54,0,.88v4.51l-.16,0c-.43,0-.88.07-1.35.11v-.31l1.19-.11v-4.22c0-.31,0-.58,0-.83a3.27,3.27,0,0,0-.09-.6.51.51,0,0,0-.13-.31.29.29,0,0,0-.22-.09h-.25l-.16,0v-1.08h2.8c.85,0,1.7,0,2.55,0h.16v1h-.4a.29.29,0,0,0-.22.09.5.5,0,0,0-.13.29,3.37,3.37,0,0,0-.11.61c0,.22,0,.49,0,.79v10.3c0,.27,0,.54,0,.76a3.72,3.72,0,0,0,.09.59.49.49,0,0,0,.13.29.17.17,0,0,0,.18,0l.2,0h.09l.18,0v1l-.13,0c-.85.11-1.73.25-2.6.38l-2.6.4-.18,0v-1.06l.13,0h.07l.16,0a.31.31,0,0,0,.25-.14.87.87,0,0,0,.16-.34,3.88,3.88,0,0,0,.09-.63c0-.25,0-.54,0-.83v-4.62c-.38,0-.78.07-1.19.11m6.77,5.63,0,0Zm-14.26-8.43-.13,0c-.16,0-.25,0-.27,0h0c-.25,0-.22,0-.27,0h-.13l0-.13a12.27,12.27,0,0,0-.31-1.66,8.54,8.54,0,0,0-.54-1.5,2.76,2.76,0,0,0-.81-1,2.07,2.07,0,0,0-1.14-.31l-.18,0V533h.18a2.22,2.22,0,0,1,1.32.36,2.82,2.82,0,0,1,.9,1.17,8.21,8.21,0,0,1,.56,1.53,10.5,10.5,0,0,1,.31,1.55h.11l.16,0v-5.88h-.25v.09a2,2,0,0,1,0,.38.72.72,0,0,1-.13.29.89.89,0,0,1-.2.2.66.66,0,0,1-.27.09l-.16,0-.13-.07-.13-.07a.62.62,0,0,1-.16-.11l-.16-.11a3.16,3.16,0,0,0-.29-.2,4.67,4.67,0,0,0-.83-.47,2.39,2.39,0,0,0-.78-.13v-.31a3,3,0,0,1,.88.16,4.55,4.55,0,0,1,.92.49l.29.22c.11.07.09.07.16.11a.48.48,0,0,0,.13.09.22.22,0,0,0,.11.07s0,0,.07,0H486l.11,0a1.21,1.21,0,0,0,.11-.14.43.43,0,0,0,.07-.2,1,1,0,0,0,0-.29v-.38h.85Zm-3.83-.4v.36s.11.07.16.11l.67.36c.25.11.45.22.61.31l.45.25a4.88,4.88,0,0,1,1,.9,4.12,4.12,0,0,1,.74,1.21,5.85,5.85,0,0,1,.45,1.48,9,9,0,0,1,.16,1.79,12.61,12.61,0,0,1-.16,2,6.64,6.64,0,0,1-.49,1.6,6,6,0,0,1-1.53,2.22,6.22,6.22,0,0,1-.92.63,4.56,4.56,0,0,1-.92.4.69.69,0,0,0-.22,0v.31l.29-.07a3.43,3.43,0,0,0,1-.43,5.2,5.2,0,0,0,1-.67,4.71,4.71,0,0,0,.9-1,8.41,8.41,0,0,0,.74-1.32,7.24,7.24,0,0,0,.49-1.66,11,11,0,0,0,.18-2,11.59,11.59,0,0,0-.16-1.84,7.46,7.46,0,0,0-.47-1.57,4.77,4.77,0,0,0-.78-1.26,5.13,5.13,0,0,0-1.1-1c-.11-.07-.27-.16-.45-.25s-.4-.22-.63-.34-.45-.22-.65-.34l-.31-.2m0,12,.11,0a1.28,1.28,0,0,0,.52-.27,3.44,3.44,0,0,0,.47-.58,2.82,2.82,0,0,0,.31-.83,4.08,4.08,0,0,0,.11-1.08,6.61,6.61,0,0,0,0-.72,2.63,2.63,0,0,0-.18-.5,2.35,2.35,0,0,0-.29-.36,1.32,1.32,0,0,0-.29-.22c-.16-.09-.38-.2-.72-.36v-.36l.13.07a6.42,6.42,0,0,1,.72.38,1.14,1.14,0,0,1,.38.29,2,2,0,0,1,.31.4,1.83,1.83,0,0,1,.22.6,4,4,0,0,1,.07.76,5.72,5.72,0,0,1-.11,1.14,3,3,0,0,1-.36.92,3.19,3.19,0,0,1-.54.65,1.36,1.36,0,0,1-.65.34l-.18,0Zm11.33-10.61v.31c-.45,0-.9.07-1.35.11h-.16v-4.66c0-.36,0-.67,0-.94a4,4,0,0,1,.11-.67,1,1,0,0,1,.25-.43.72.72,0,0,1,.43-.18h.07v-.61L494,532l-4.73,0v.5l.11,0a.62.62,0,0,1,.43.18,1.16,1.16,0,0,1,.22.47,5.85,5.85,0,0,1,.09.72c0,.25,0,.56,0,.92v11.37c0,.36,0,.67,0,.94a5.87,5.87,0,0,1-.09.72,1.61,1.61,0,0,1-.22.52.64.64,0,0,1-.4.25.76.76,0,0,1-.13,0v.49c.81-.18,1.59-.36,2.4-.51s1.66-.34,2.47-.5v-.45a.06.06,0,0,1,0,0,.56.56,0,0,1-.34,0,.38.38,0,0,1-.22-.2,1,1,0,0,1-.16-.34c0-.11,0-.25-.07-.4s0-.31,0-.5V540.5l.13,0c.43,0,.85-.07,1.35-.14h0v.31c-.36,0-.79.09-1.21.11v4.8c0,.22,0,.43,0,.6s0,.34,0,.47a1,1,0,0,0,.07.36.92.92,0,0,0,.09.25.45.45,0,0,0,.11.09.14.14,0,0,0,.13,0h.09a.4.4,0,0,1,.16,0l.18,0v1.08l-.11,0c-.88.16-1.75.31-2.6.49s-1.73.36-2.58.56l-.2,0v-1l.2-.18a.66.66,0,0,0,.18,0,.38.38,0,0,0,.22-.16.87.87,0,0,0,.16-.38,4.5,4.5,0,0,0,.09-.67c0-.27,0-.56,0-.92V534.78c0-.34,0-.65,0-.9a4.49,4.49,0,0,0-.09-.67.6.6,0,0,0-.13-.31.24.24,0,0,0-.2-.09h-.27l-.16,0V531.7h.16c1.64,0,3.25,0,5.34.11v.92H494a.22.22,0,0,0-.2.09.75.75,0,0,0-.18.29,3.55,3.55,0,0,0-.09.6,9.17,9.17,0,0,0,0,.92V539l1.19-.09Zm-11.33-5.58a1.77,1.77,0,0,0-.34.11,1.38,1.38,0,0,0-.47.36,1.33,1.33,0,0,0-.34.58,2.76,2.76,0,0,0-.11.81,3.83,3.83,0,0,0,.07.72,1.93,1.93,0,0,0,.22.58,1.84,1.84,0,0,0,.34.47,3.32,3.32,0,0,0,.4.38l.22.14v.36c-.13-.07-.27-.16-.4-.25a3.58,3.58,0,0,1-.83-.94,2.18,2.18,0,0,1-.25-.67,3,3,0,0,1-.09-.79,2.68,2.68,0,0,1,.13-.9,1.79,1.79,0,0,1,.4-.69,1.43,1.43,0,0,1,.56-.43,1.27,1.27,0,0,1,.47-.16Zm0,18.08a5.12,5.12,0,0,1-.83.07,4.34,4.34,0,0,1-1.17-.22l-.4-.13a1.54,1.54,0,0,0-.27-.09.34.34,0,0,0-.2,0,.44.44,0,0,0-.18,0,.32.32,0,0,0-.2.11c0,.07-.09.16-.13.25a2,2,0,0,0-.11.4,3,3,0,0,0,0,.45v.11l-.11,0a1,1,0,0,1-.16,0l-.4.13-.2,0v-7.89l.11,0,.29-.07a1.6,1.6,0,0,1,.29,0l.16,0,0,.18a9.73,9.73,0,0,0,.29,1.5,7.34,7.34,0,0,0,.5,1.3,7,7,0,0,0,.65,1,4.06,4.06,0,0,0,.74.65,2.1,2.1,0,0,0,.76.34,1.77,1.77,0,0,0,.58,0v.31a1.62,1.62,0,0,1-.65,0,2.27,2.27,0,0,1-.85-.36,3.14,3.14,0,0,1-.81-.74,5.45,5.45,0,0,1-.69-1.06,7.12,7.12,0,0,1-.51-1.35,8.86,8.86,0,0,1-.29-1.39.44.44,0,0,0-.11,0l-.16,0v7.25l.2-.07a.08.08,0,0,0,0,0,2,2,0,0,1,0-.38,2.17,2.17,0,0,1,.11-.45,1.09,1.09,0,0,1,.2-.36.83.83,0,0,1,.34-.22,1.13,1.13,0,0,1,.27,0,1.2,1.2,0,0,1,.29,0,2.15,2.15,0,0,1,.29.11l.38.13a5.1,5.1,0,0,0,1.1.2,5,5,0,0,0,.81-.07Zm0-6.82v-.36c-.22-.11-.49-.22-.81-.36a8.77,8.77,0,0,1-.92-.5,5,5,0,0,1-.81-.54,3.1,3.1,0,0,1-.65-.76,5.08,5.08,0,0,1-.56-1.06,5.87,5.87,0,0,1-.36-1.41,11.14,11.14,0,0,1-.13-1.79,11.75,11.75,0,0,1,.13-1.79,7.77,7.77,0,0,1,.4-1.55,4.94,4.94,0,0,1,.63-1.26,4.09,4.09,0,0,1,.83-.92,3.05,3.05,0,0,1,1-.54,3.29,3.29,0,0,1,1.17-.18h0v-.31h0a4.05,4.05,0,0,0-1.28.2,3.75,3.75,0,0,0-1.1.58,5,5,0,0,0-.92,1,6.63,6.63,0,0,0-.65,1.32,8.65,8.65,0,0,0-.4,1.61,9.74,9.74,0,0,0-.13,1.84,11.5,11.5,0,0,0,.11,1.84,7.81,7.81,0,0,0,.38,1.48,7.47,7.47,0,0,0,.58,1.12,4.09,4.09,0,0,0,.72.81,5.71,5.71,0,0,0,.85.59,10,10,0,0,0,1,.49c.36.18.67.31.92.43Z" transform="translate(-452.06 -436.83)" style="fill:#302c2a;fill-rule:evenodd"/><path d="M533.75,528.68v-1.3a3.07,3.07,0,0,0,.52-.31,2.77,2.77,0,0,0,.79-.83.68.68,0,0,0,0-.88.84.84,0,0,0-.69-.34,1.17,1.17,0,0,0-.65.27v-1.86l1-.72a4.23,4.23,0,0,0,.54-.4.34.34,0,0,0,.11-.18v-.22c0-.11,0-.18,0-.22a.13.13,0,0,1,.07-.11.21.21,0,0,1,.25,0,1.5,1.5,0,0,1,.36.27,5,5,0,0,1,.85.69c.13.2,0,.45-.34.72l-.18.11-1.62,1.19a2.17,2.17,0,0,1,1.5,1.55,1.91,1.91,0,0,1,0,.79,2,2,0,0,1-.31.74,3.23,3.23,0,0,1-.63.63,2.16,2.16,0,0,1-1.26.45,1.73,1.73,0,0,1-.34,0m0-5.25v1.86l-.07,0-.59.43a3.06,3.06,0,0,0-.72.69.62.62,0,0,0,0,.76.75.75,0,0,0,.83.31,4.3,4.3,0,0,0,.49-.16v1.3a2.37,2.37,0,0,1-.92-.31,3,3,0,0,1-.94-.83V524.8a2.48,2.48,0,0,1,.25-.2Zm-1.86-1.12v-1.44l.11.07a1.47,1.47,0,0,1,.36.22.34.34,0,0,1,.16.4Zm0-1.44v1.44l-1.28,1.53a1.75,1.75,0,0,0-.29.42.34.34,0,0,0,0,.25.33.33,0,0,1,0,.36c-.09.11-.18.13-.25.11a1.88,1.88,0,0,1-.31-.2l-.6-.49A1.69,1.69,0,0,1,529,524a.39.39,0,0,1,0-.22c0-.07.09-.18.16-.31a2.12,2.12,0,0,1-1.3-.27v-2.89l.58-.69.14-.16a.87.87,0,0,0,.13-.2,1.11,1.11,0,0,0,0-.25c0-.13,0-.22,0-.27a.21.21,0,0,1,.22-.09,3.64,3.64,0,0,1,.85.38.15.15,0,0,1,.11,0l.18.09c.16.16.22.29.2.4a1.43,1.43,0,0,1-.31.49l-1.32,1.59a2.84,2.84,0,0,0-.29.4.74.74,0,0,0-.11.38.57.57,0,0,0,.22.36,1.26,1.26,0,0,0,.34.18,1.07,1.07,0,0,0,.38,0,1.17,1.17,0,0,0,.58-.45l.9-1.07.11-.13a.94.94,0,0,0,.14-.22.38.38,0,0,0,0-.22.38.38,0,0,1,0-.29.24.24,0,0,1,.25-.07,2.08,2.08,0,0,1,.74.31m0,3.93a1.8,1.8,0,0,0-.22.2,1.44,1.44,0,0,0-.31.43,1.33,1.33,0,0,0-.11.54,2.4,2.4,0,0,0,.16.74,3.58,3.58,0,0,0,.4.72.48.48,0,0,0,.09.11Zm-4.08-7.51V515a2.83,2.83,0,0,1,.74.22c.2.11.2.38,0,.78l-.09.16Zm0-2.31v2.31l-1.68,3a3.08,3.08,0,0,0-.2.45.49.49,0,0,0,.09.25.34.34,0,0,1,.07.34c-.07.11-.13.16-.22.16a1.76,1.76,0,0,1-.34-.13l-1.14-.63V520a.32.32,0,0,0,.18,0,1.14,1.14,0,0,0,.27-.4l1.84-3.3c.16-.29.25-.49.31-.6a.87.87,0,0,0,0-.22.92.92,0,0,0-.11-.2,1,1,0,0,0-.09-.18s0-.09,0-.16a.27.27,0,0,1,.11-.09.51.51,0,0,1,.18,0,.6.6,0,0,1,.2,0l.16,0,.34.07m0,5.36-.38.45-.36.5a1,1,0,0,0-.14.38,1.46,1.46,0,0,0,.56,1.37,2.19,2.19,0,0,0,.31.2Zm-3.43-3.09a.3.3,0,0,0,.13,0,.53.53,0,0,0,.27-.27.69.69,0,0,0-.11-.65,1.42,1.42,0,0,0-.29-.36Zm0-1.3v1.3a.57.57,0,0,1-.27,0,.79.79,0,0,1-.29-.22,2.16,2.16,0,0,1-.16-.38,1.87,1.87,0,0,0-.16-.4.49.49,0,0,0-.31-.22.64.64,0,0,0-.6,0,1.8,1.8,0,0,0-.52.49,3.75,3.75,0,0,0-.34.65,2,2,0,0,0-.11,1.08,1,1,0,0,0,.65.74h0a1.34,1.34,0,0,0,.54.09,1.68,1.68,0,0,0,.58-.16c.2-.07.34-.11.43-.07a.23.23,0,0,1,.16.13.34.34,0,0,1,0,.22,1.05,1.05,0,0,1-.74.47,2.77,2.77,0,0,1-1.55-.09,3,3,0,0,1-.81-.47,2.78,2.78,0,0,1-.58-.7,2.11,2.11,0,0,1-.22-.85,2.25,2.25,0,0,1,.13-.94,2.5,2.5,0,0,1,.74-1,2.16,2.16,0,0,1,1.15-.45,2.7,2.7,0,0,1,1.26.16,4.47,4.47,0,0,1,.69.38c.11.07.2.16.29.22m0,4.11v.69l-.11-.07a1,1,0,0,1-.29-.22c-.07-.07-.07-.16,0-.27s.16-.13.34-.13Zm-16.91-1.7v-.72a.87.87,0,0,0,.6-.56,1.11,1.11,0,0,0,.09-.45,2.77,2.77,0,0,0-.07-.54l0-.29-.18,0a2.74,2.74,0,0,0-.4.11v-.63l.13,0,.29,0a1.06,1.06,0,0,0-.31-.65s-.07-.07-.11-.07v-.76a2.31,2.31,0,0,1,1,.13,1.38,1.38,0,0,1,.67.47,1.89,1.89,0,0,1,.29.81l.25,1.39a1.47,1.47,0,0,0,.14.49.37.37,0,0,0,.22.13c.18,0,.27.14.27.25a.22.22,0,0,1-.07.25,1.1,1.1,0,0,1-.36.11L509,518a.84.84,0,0,1-.34,0,.23.23,0,0,1-.16-.13,1.73,1.73,0,0,1-.09-.34,1.48,1.48,0,0,1-.94.85m3.57-5.61c0-.34,0-.56,0-.7a.32.32,0,0,0-.09-.18.38.38,0,0,0-.18-.13l-.18-.11s0-.07,0-.14a.19.19,0,0,1,0-.16,1,1,0,0,1,.16-.09l.18-.07.16,0a3.73,3.73,0,0,1,1.05-.27c.25,0,.36.2.38.67v.2l.09,4.73a2,2,0,0,0,0,.49.38.38,0,0,0,.2.16c.14.07.22.16.22.27a.24.24,0,0,1-.13.25,1.43,1.43,0,0,1-.36,0l-1.39,0a.8.8,0,0,1-.36,0,.21.21,0,0,1-.13-.22c0-.11.07-.2.2-.29s.18-.09.2-.16a2,2,0,0,0,0-.49Zm-3.57,1v.76a.76.76,0,0,0-.56-.09.5.5,0,0,0-.29.13,1,1,0,0,0-.25.27c-.09.11-.18.2-.25.27a1.15,1.15,0,0,1-.29.11.68.68,0,0,1-.43,0,.32.32,0,0,1-.2-.29.46.46,0,0,1,.25-.5,2.92,2.92,0,0,1,.74-.38,3.91,3.91,0,0,1,.72-.18,2.6,2.6,0,0,1,.56-.07m0,1.55v.63a1.55,1.55,0,0,0-.45.29.9.9,0,0,0-.22.83.66.66,0,0,0,.22.43.54.54,0,0,0,.45.13v.72a1.51,1.51,0,0,1-.34.09,2,2,0,0,1-.83,0,1.39,1.39,0,0,1-.65-.36,1.24,1.24,0,0,1-.36-.72,1.1,1.1,0,0,1,.11-.81,1.63,1.63,0,0,1,.56-.6,5.52,5.52,0,0,1,.79-.4,5.26,5.26,0,0,1,.72-.2m-5.61,4.93v-.9a.57.57,0,0,0,.63,0,.74.74,0,0,0,.47-.74,2.34,2.34,0,0,0-.25-1.07,2.79,2.79,0,0,0-.65-1,1.72,1.72,0,0,0-.2-.18v-1a1.19,1.19,0,0,1,.29,0,1.82,1.82,0,0,1,.79.16,1.56,1.56,0,0,1,.65.45,2.54,2.54,0,0,1,.5.74,2.21,2.21,0,0,1,.18,1.35,2.26,2.26,0,0,1-.56,1.14,3.32,3.32,0,0,1-1.14.81,2.58,2.58,0,0,1-.69.22m0-4.82v1a.7.7,0,0,0-.63,0,.88.88,0,0,0-.49.63,1.38,1.38,0,0,0,.18.76l.27.65a3.26,3.26,0,0,0,.56.85.23.23,0,0,0,.11.09v.9a.18.18,0,0,1-.09,0,2.23,2.23,0,0,1-.76,0,1.12,1.12,0,0,1-.49-.22,1.33,1.33,0,0,1-.36-.38,2.6,2.6,0,0,1-.29-.56l-1.08-2.42v-2.63l0,0c.22-.09.42.07.63.5l.07.18.83,1.84a2.11,2.11,0,0,1,1-1,2.89,2.89,0,0,1,.56-.16m-3.07,6.7v-1.07s0,0,0,0,.25,0,.43-.11a1,1,0,0,1,.42-.2.25.25,0,0,1,.27.16c.13.18,0,.38-.31.63Zm0-8.07v2.63l-.22-.5a3.73,3.73,0,0,0-.31-.6.37.37,0,0,0-.14-.13.56.56,0,0,0-.22,0,1.36,1.36,0,0,1-.22,0s-.07,0-.09-.11,0-.16,0-.25l.31-.29a6.13,6.13,0,0,1,.85-.65m0,7v1.07l-.16.11a1.39,1.39,0,0,1-.43.2.33.33,0,0,1-.29,0,1.61,1.61,0,0,1-.31-.34L496,519.64l-.16.09a.6.6,0,0,1-.16.09v-2.69a.65.65,0,0,1,.25-.07c.07,0,.13.11.25.27l.6.9.45-.29a1,1,0,0,1,.38-.18c.11,0,.2,0,.29.16s0,.4-.25.6l-.45.29,1.3,1.91a1,1,0,0,0,.31.34m-3.14,3.79a2.08,2.08,0,0,0,.43-.78,2.18,2.18,0,0,0,.11-1.26,1.91,1.91,0,0,0-.54-1Zm0-7.72v2.69a.48.48,0,0,1-.22.09c-.09,0-.18,0-.27-.16v-.36l.11-.11a1.45,1.45,0,0,0,.27-.29.53.53,0,0,0,.09-.29,2.5,2.5,0,0,0-.27-.83.64.64,0,0,1-.07-.38.51.51,0,0,1,.25-.27.52.52,0,0,0,.11-.09m0,4.64v3.07a1.5,1.5,0,0,1-.25.31,2,2,0,0,1-.25.22v-1a.87.87,0,0,0,0-.67v-2.4a2.11,2.11,0,0,1,.43.36Zm-2.92,5.63a.25.25,0,0,1,.25,0c.11.09.16.16.13.25a1.11,1.11,0,0,1-.16.34l-.22.29Zm2.42-8v.36c-.07-.09-.09-.18,0-.25a.38.38,0,0,1,0-.11m0,2v2.4a2.77,2.77,0,0,0-.72-1,2.2,2.2,0,0,0-.92-.6.82.82,0,0,0-.78.13v-.83l.27-.13a2.53,2.53,0,0,1,.9-.25,2.41,2.41,0,0,1,.9.11c.13,0,.25.11.36.16m0,3.07v1a2.5,2.5,0,0,1-1.41.63,2.33,2.33,0,0,1-1-.11s0,0,0,0v-2a2.44,2.44,0,0,0,.31.36,3,3,0,0,0,1,.67.9.9,0,0,0,1.12-.49m-2.92,3a.31.31,0,0,0,.16.07.83.83,0,0,0,.25-.07.17.17,0,0,1,.09,0v.88l-.49.76Zm.49-6v.83a.3.3,0,0,0-.09.09.81.81,0,0,0-.22.9,1.92,1.92,0,0,0,.31.6v2a2.16,2.16,0,0,1-.49-.27v-3.74a2.84,2.84,0,0,1,.49-.4m-.79,5.81a1.53,1.53,0,0,0,.29.18V529l-.09.11a.72.72,0,0,1-.25.27c-.07.07-.16,0-.27,0s-.11-.16-.09-.34,0-.2,0-.25a1.17,1.17,0,0,0-.38-.31l-2-1.37-.07.09a1.47,1.47,0,0,1-.27.31c-.07,0-.18,0-.31-.07a.64.64,0,0,1-.16-.2.52.52,0,0,1,.13-.38l.11-.16a6.39,6.39,0,0,1-.74-.54,2.3,2.3,0,0,1-.49-.54,1.55,1.55,0,0,1-.2-.88,1.59,1.59,0,0,1,.31-.85,1.45,1.45,0,0,1,.49-.47.47.47,0,0,1,.54,0,.5.5,0,0,1,.25.31.47.47,0,0,1-.09.38.54.54,0,0,1-.16.16,1.86,1.86,0,0,1-.22.11l-.13,0c-.07.09,0,.22.34.4l.92.63.16-.22.09-.16a1.2,1.2,0,0,1,.25-.25c.09,0,.18,0,.31,0s.18.18.16.29a1.61,1.61,0,0,1-.22.45l-.16.22Zm.29-5.41h0a2.66,2.66,0,0,0-.74,2.74,2.21,2.21,0,0,0,.5.78c.09.07.18.16.27.22Z" transform="translate(-452.06 -436.83)" style="fill:#302c2a;fill-rule:evenodd"/><path d="M529.08,550l-3.16,3.45-2.89-.88.67,3.45-4,3.23c1.46-.43,3-.47,4.4-1.26l-.22,2.42,3-3.59,3.14-1.77-1.55-.54Z" transform="translate(-452.06 -436.83)" style="fill:#302c2a;fill-rule:evenodd"/><polygon points="59.76 0 63.1 8.97 72.65 9.38 65.16 15.32 67.72 24.54 59.76 19.27 51.82 24.54 54.35 15.32 46.88 9.38 56.44 8.97 59.76 0" style="fill:#76664f"/><path d="M504.77,459.84h.54l-.67.45Zm13.57,0h.54l.11.45Z" transform="translate(-452.06 -436.83)" style="fill:#725a1d;fill-rule:evenodd"/><path d="M504.88,459.41H506l-1.35.88Zm12.78,0h1.08l.25.88Z" transform="translate(-452.06 -436.83)" style="fill:#725a1d;fill-rule:evenodd"/><path d="M518.88,459.84h-.54L517,459h1.64Zm-13.57,0h-.54L505,459h1.64Z" transform="translate(-452.06 -436.83)" style="fill:#79601f;fill-rule:evenodd"/><path d="M518.74,459.41h-1.08l-1.35-.9h2.2Zm-12.76,0h-1.1l.25-.9h2.2Z" transform="translate(-452.06 -436.83)" style="fill:#7f6723;fill-rule:evenodd"/><path d="M518.63,459H517l-1.35-.88h2.74Zm-12,0H505l.25-.88H508Z" transform="translate(-452.06 -436.83)" style="fill:#866d24;fill-rule:evenodd"/><path d="M518.52,458.52h-2.2l-1.32-.88h3.28Zm-11.19,0h-2.2l.25-.88h3.27Z" transform="translate(-452.06 -436.83)" style="fill:#8e7527;fill-rule:evenodd"/><path d="M518.39,458.09h-2.74l-1.32-.9h3.81Zm-10.41,0h-2.71l.25-.9h3.81Z" transform="translate(-452.06 -436.83)" style="fill:#967c2a;fill-rule:evenodd"/><path d="M518.27,457.64H515l-1.35-.9H518Zm-9.62,0h-3.27l.25-.9H510Z" transform="translate(-452.06 -436.83)" style="fill:#9d842e;fill-rule:evenodd"/><path d="M518.14,457.19h-3.81l-1.35-.88h4.91Zm-8.82,0h-3.81l.25-.88h4.91Z" transform="translate(-452.06 -436.83)" style="fill:#a58c32;fill-rule:evenodd"/><path d="M518,456.74h-4.37l-1.35-.88h5.47Zm-8,0h-4.37l.25-.88h5.43Z" transform="translate(-452.06 -436.83)" style="fill:#af9637;fill-rule:evenodd"/><polygon points="65.84 19.49 60.92 19.49 59.76 18.71 58.62 19.49 53.7 19.49 53.95 18.59 65.59 18.59 65.84 19.49" style="fill:#b69f3a;fill-rule:evenodd"/><polygon points="65.72 19.04 60.25 19.04 59.76 18.71 59.24 19.04 53.81 19.04 54.06 18.15 65.48 18.15 65.72 19.04" style="fill:#bda73f;fill-rule:evenodd"/><polygon points="65.59 18.59 53.95 18.59 54.19 17.72 65.34 17.72 65.59 18.59" style="fill:#c6ae44;fill-rule:evenodd"/><polygon points="65.48 18.14 54.06 18.14 54.31 17.27 65.23 17.27 65.48 18.14" style="fill:#d2bb4b;fill-rule:evenodd"/><polygon points="65.34 17.72 54.2 17.72 54.42 16.82 65.1 16.82 65.34 17.72" style="fill:#dac451;fill-rule:evenodd"/><polygon points="65.23 17.27 54.31 17.27 54.55 16.4 64.98 16.4 65.23 17.27" style="fill:#e3ce58;fill-rule:evenodd"/><polygon points="65.1 16.82 54.42 16.82 54.67 15.95 64.85 15.95 65.1 16.82" style="fill:#edd85e;fill-rule:evenodd"/><polygon points="64.98 16.4 54.55 16.4 54.8 15.5 64.74 15.5 64.98 16.4" style="fill:#f8e365;fill-rule:evenodd"/><polygon points="64.85 15.95 54.66 15.95 54.89 15.16 54.76 15.05 64.76 15.05 64.65 15.16 64.85 15.95" style="fill:#f8e365;fill-rule:evenodd"/><polygon points="64.74 15.5 54.8 15.5 54.89 15.16 54.22 14.62 65.32 14.62 64.65 15.16 64.74 15.5" style="fill:#f8e365;fill-rule:evenodd"/><polygon points="64.76 15.05 54.76 15.05 53.66 14.18 65.88 14.18 64.76 15.05" style="fill:#f8e365;fill-rule:evenodd"/><polygon points="65.32 14.62 54.22 14.62 53.1 13.73 66.44 13.73 65.32 14.62" style="fill:#f8e365;fill-rule:evenodd"/><polygon points="65.88 14.18 53.66 14.18 52.53 13.28 66.98 13.28 65.88 14.18" style="fill:#f8e365;fill-rule:evenodd"/><polygon points="66.44 13.73 53.1 13.73 51.97 12.85 67.54 12.85 66.44 13.73" style="fill:#f8e365;fill-rule:evenodd"/><polygon points="66.98 13.28 52.53 13.28 51.43 12.4 68.1 12.4 66.98 13.28" style="fill:#f8e365;fill-rule:evenodd"/><polygon points="67.54 12.85 51.97 12.85 50.88 11.96 68.66 11.96 67.54 12.85" style="fill:#f8e365;fill-rule:evenodd"/><polygon points="68.1 12.4 51.43 12.4 50.31 11.53 69.22 11.53 68.1 12.4" style="fill:#f8e365;fill-rule:evenodd"/><polygon points="68.66 11.96 50.87 11.96 49.75 11.08 69.76 11.08 68.66 11.96" style="fill:#f8e365;fill-rule:evenodd"/><polygon points="69.22 11.53 50.31 11.53 49.19 10.63 70.32 10.63 69.22 11.53" style="fill:#f8e365;fill-rule:evenodd"/><polygon points="69.76 11.08 49.76 11.08 48.66 10.18 70.88 10.18 69.76 11.08" style="fill:#f8e365;fill-rule:evenodd"/><polygon points="70.32 10.63 49.19 10.63 48.14 9.8 49.15 9.76 70.39 9.76 71.38 9.8 70.32 10.63" style="fill:#f8e365;fill-rule:evenodd"/><polygon points="70.88 10.18 48.66 10.18 48.14 9.8 56.75 9.42 56.8 9.31 62.74 9.31 62.79 9.42 71.38 9.8 70.88 10.18" style="fill:#f8e365;fill-rule:evenodd"/><polygon points="70.39 9.76 49.15 9.76 56.75 9.42 56.95 8.86 62.56 8.86 62.78 9.42 70.39 9.76" style="fill:#f8e365;fill-rule:evenodd"/><polygon points="62.74 9.31 56.8 9.31 57.13 8.41 62.4 8.41 62.74 9.31" style="fill:#f8e365;fill-rule:evenodd"/><polygon points="62.56 8.86 56.95 8.86 57.29 7.99 62.25 7.99 62.56 8.86" style="fill:#f8e365;fill-rule:evenodd"/><polygon points="62.4 8.41 57.13 8.41 57.47 7.54 62.07 7.54 62.4 8.41" style="fill:#efd95e;fill-rule:evenodd"/><polygon points="62.25 7.99 57.29 7.99 57.63 7.09 61.91 7.09 62.25 7.99" style="fill:#e5d05b;fill-rule:evenodd"/><polygon points="62.07 7.54 57.47 7.54 57.78 6.66 61.73 6.66 62.07 7.54" style="fill:#dfc754;fill-rule:evenodd"/><polygon points="61.91 7.09 57.63 7.09 57.96 6.21 61.57 6.21 61.91 7.09" style="fill:#d5bf4e;fill-rule:evenodd"/><polygon points="61.73 6.66 57.78 6.66 58.12 5.76 61.42 5.76 61.73 6.66" style="fill:#cbb548;fill-rule:evenodd"/><polygon points="61.57 6.21 57.96 6.21 58.28 5.32 61.24 5.32 61.57 6.21" style="fill:#c4ac44;fill-rule:evenodd"/><polygon points="61.42 5.76 58.12 5.76 58.46 4.89 61.08 4.89 61.42 5.76" style="fill:#bba33f;fill-rule:evenodd"/><polygon points="61.24 5.32 58.28 5.32 58.61 4.44 60.92 4.44 61.24 5.32" style="fill:#b29b3a;fill-rule:evenodd"/><polygon points="61.08 4.89 58.46 4.89 58.79 3.99 60.74 3.99 61.08 4.89" style="fill:#ac9235;fill-rule:evenodd"/><polygon points="60.92 4.44 58.61 4.44 58.95 3.54 60.59 3.54 60.92 4.44" style="fill:#a38a33;fill-rule:evenodd"/><polygon points="60.74 3.99 58.79 3.99 59.11 3.12 60.41 3.12 60.74 3.99" style="fill:#9b832f;fill-rule:evenodd"/><polygon points="60.59 3.54 58.95 3.54 59.26 2.67 60.25 2.67 60.59 3.54" style="fill:#947c2b;fill-rule:evenodd"/><polygon points="60.41 3.12 59.11 3.12 59.42 2.22 60.09 2.22 60.41 3.12" style="fill:#8c7428;fill-rule:evenodd"/><polygon points="60.25 2.67 59.26 2.67 59.6 1.79 59.91 1.79 60.25 2.67" style="fill:#866d24;fill-rule:evenodd"/><polygon points="60.09 2.22 59.42 2.22 59.76 1.34 60.09 2.22" style="fill:#7f6723;fill-rule:evenodd"/><polygon points="59.91 1.79 59.6 1.79 59.76 1.35 59.91 1.79" style="fill:#725a1d;fill-rule:evenodd"/></svg>